<svg data-v-423bf9ae="" xmlns="http://www.w3.org/2000/svg" viewBox="0 0 746 90" class="iconLeftSlogan"><!----><!----><!----><g data-v-423bf9ae="" id="ac06f8ea-8113-46ab-8b11-cb38fce6256d" fill="black" transform="matrix(5.132591724456826,0,0,5.132591724456826,103.84088786360473,-38.443109887750296)"><path d="M4.34 19.18L4.34 19.18Q2.87 19.18 2.04 18.30L2.04 18.30L2.04 18.30Q1.20 17.42 1.20 15.85L1.20 15.85L1.20 15.85Q1.20 14.34 1.88 13.10L1.88 13.10L1.88 13.10Q2.55 11.86 3.69 11.14L3.69 11.14L3.69 11.14Q4.83 10.43 6.19 10.43L6.19 10.43L6.19 10.43Q6.99 10.43 7.44 10.68L7.44 10.68L7.44 10.68Q7.90 10.93 7.90 11.37L7.90 11.37L7.90 11.37Q7.90 11.75 7.59 12.01L7.59 12.01L7.59 12.01Q7.28 12.26 6.83 12.26L6.83 12.26L6.83 12.26Q5.75 12.26 5.28 11.33L5.28 11.33L5.28 11.33Q4.13 11.84 3.40 13.09L3.40 13.09L3.40 13.09Q2.67 14.34 2.67 15.95L2.67 15.95L2.67 15.95Q2.67 17.08 3.10 17.72L3.10 17.72L3.10 17.72Q3.53 18.37 4.28 18.37L4.28 18.37L4.28 18.37Q5.19 18.37 5.78 17.72L5.78 17.72L5.78 17.72Q6.36 17.08 6.43 16.09L6.43 16.09L6.43 16.09Q7.42 16.09 7.42 16.86L7.42 16.86L7.42 16.86Q7.42 17.47 7 18.01L7 18.01L7 18.01Q6.58 18.55 5.87 18.87L5.87 18.87L5.87 18.87Q5.17 19.18 4.34 19.18L4.34 19.18ZM10.64 19.18L10.64 19.18Q9.86 19.18 9.86 18.37L9.86 18.37L9.86 18.37Q9.86 17.91 10.09 16.56L10.09 16.56L10.09 16.56Q10.33 15.20 10.85 12.53L10.85 12.53L10.85 12.53Q10.99 11.82 11.16 10.95L11.16 10.95L11.16 10.95Q11.33 10.08 11.51 9.07L11.51 9.07L10.93 8.47L10.93 8.47Q11.20 8.25 11.59 8.11L11.59 8.11L11.59 8.11Q11.97 7.98 12.29 7.98L12.29 7.98L12.29 7.98Q12.63 7.98 12.77 8.14L12.77 8.14L12.77 8.14Q12.91 8.30 12.91 8.69L12.91 8.69L12.91 8.69Q12.91 8.95 12.82 9.35L12.82 9.35L12.82 9.35Q12.74 9.74 12.54 10.56L12.54 10.56L12.54 10.56Q12.17 12.10 11.98 12.98L11.98 12.98L12.12 13.05L12.12 13.05Q12.88 11.68 13.89 11.05L13.89 11.05L13.89 11.05Q14.90 10.43 15.89 10.43L15.89 10.43L15.89 10.43Q16.81 10.43 17.26 10.89L17.26 10.89L17.26 10.89Q17.71 11.35 17.71 12.33L17.71 12.33L17.71 12.33Q17.71 12.91 17.58 13.53L17.58 13.53L17.58 13.53Q17.46 14.15 17.22 15.09L17.22 15.09L17.22 15.09Q16.94 16.25 16.81 16.92L16.81 16.92L16.81 16.92Q16.69 17.58 16.69 18.27L16.69 18.27L16.69 18.27Q16.69 18.68 16.84 18.86L16.84 18.86L16.84 18.86Q16.51 19.18 16.11 19.18L16.11 19.18L16.11 19.18Q15.71 19.18 15.53 18.98L15.53 18.98L15.53 18.98Q15.34 18.77 15.34 18.37L15.34 18.37L15.34 18.37Q15.34 17.84 15.46 17.19L15.46 17.19L15.46 17.19Q15.57 16.53 15.81 15.34L15.81 15.34L15.81 15.34Q16.02 14.35 16.13 13.72L16.13 13.72L16.13 13.72Q16.24 13.09 16.24 12.64L16.24 12.64L16.24 12.64Q16.24 11.37 15.29 11.37L15.29 11.37L15.29 11.37Q14.36 11.37 13.41 12.26L13.41 12.26L13.41 12.26Q12.46 13.16 11.84 14.74L11.84 14.74L11.84 14.74Q11.21 16.32 11.21 18.27L11.21 18.27L11.21 18.27Q11.21 18.70 11.35 18.86L11.35 18.86L11.35 18.86Q11.03 19.18 10.64 19.18L10.64 19.18ZM28.06 11.30L28.06 11.30Q28.06 11.63 27.97 12.06L27.97 12.06L27.97 12.06Q27.89 12.49 27.66 13.43L27.66 13.43L27.66 13.43Q27.31 14.91 27.12 16.00L27.12 16.00L27.12 16.00Q26.92 17.09 26.92 18.27L26.92 18.27L26.92 18.27Q26.92 18.66 27.12 18.86L27.12 18.86L27.12 18.86Q26.80 19.18 26.40 19.18L26.40 19.18L26.40 19.18Q26.00 19.18 25.77 18.91L25.77 18.91L25.77 18.91Q25.55 18.65 25.55 18.13L25.55 18.13L25.55 18.13Q25.55 17.77 25.66 17.21L25.66 17.21L25.52 17.14L25.52 17.14Q25.00 18.12 24.23 18.65L24.23 18.65L24.23 18.65Q23.45 19.18 22.57 19.18L22.57 19.18L22.57 19.18Q21.81 19.18 21.24 18.77L21.24 18.77L21.24 18.77Q20.66 18.37 20.35 17.62L20.35 17.62L20.35 17.62Q20.03 16.87 20.03 15.89L20.03 15.89L20.03 15.89Q20.03 14.39 20.75 13.14L20.75 13.14L20.75 13.14Q21.46 11.89 22.69 11.16L22.69 11.16L22.69 11.16Q23.91 10.43 25.35 10.43L25.35 10.43L25.35 10.43Q26.01 10.43 26.73 10.54L26.73 10.54L26.73 10.54Q26.87 10.77 26.88 10.93L26.88 10.93L26.88 10.93Q27.12 10.78 27.37 10.78L27.37 10.78L27.37 10.78Q27.69 10.78 27.87 10.91L27.87 10.91L27.87 10.91Q28.06 11.05 28.06 11.30L28.06 11.30ZM23.10 18.13L23.10 18.13Q25.82 18.13 26.71 11.07L26.71 11.07L26.71 11.07Q25.06 11.10 23.88 11.75L23.88 11.75L23.88 11.75Q22.71 12.39 22.10 13.49L22.10 13.49L22.10 13.49Q21.49 14.59 21.49 15.97L21.49 15.97L21.49 15.97Q21.49 17.00 21.91 17.56L21.91 17.56L21.91 17.56Q22.33 18.13 23.10 18.13L23.10 18.13ZM31.71 19.18L31.71 19.18Q31.32 19.18 31.12 18.94L31.12 18.94L31.12 18.94Q30.93 18.69 30.93 18.16L30.93 18.16L30.93 18.16Q30.93 17.57 31.34 15.51L31.34 15.51L31.34 15.51Q31.75 13.45 32.23 11.70L32.23 11.70L31.64 11.10L31.64 11.10Q32.37 10.49 32.87 10.49L32.87 10.49L32.87 10.49Q33.21 10.49 33.36 10.68L33.36 10.68L33.36 10.68Q33.52 10.88 33.52 11.17L33.52 11.17L33.52 11.17Q33.52 11.62 33.36 12.15L33.36 12.15L33.36 12.15Q33.21 12.68 32.91 13.40L32.91 13.40L33.05 13.47L33.05 13.47Q33.73 11.93 34.45 11.17L34.45 11.17L34.45 11.17Q35.18 10.42 35.84 10.42L35.84 10.42L35.84 10.42Q36.26 10.42 36.46 10.58L36.46 10.58L36.46 10.58Q36.65 10.74 36.65 11.10L36.65 11.10L36.65 11.10Q36.65 11.49 36.32 11.73L36.32 11.73L36.32 11.73Q35.98 11.96 35.46 11.96L35.46 11.96L35.46 11.96Q34.71 11.96 33.96 12.89L33.96 12.89L33.96 12.89Q33.22 13.82 32.75 15.29L32.75 15.29L32.75 15.29Q32.28 16.76 32.28 18.27L32.28 18.27L32.28 18.27Q32.28 18.70 32.42 18.86L32.42 18.86L32.42 18.86Q32.10 19.18 31.71 19.18L31.71 19.18ZM38.42 19.18L38.42 19.18Q38.02 19.18 37.83 18.94L37.83 18.94L37.83 18.94Q37.63 18.69 37.63 18.16L37.63 18.16L37.63 18.16Q37.63 17.57 38.05 15.51L38.05 15.51L38.05 15.51Q38.46 13.45 38.93 11.70L38.93 11.70L38.35 11.10L38.35 11.10Q39.07 10.49 39.58 10.49L39.58 10.49L39.58 10.49Q39.91 10.49 40.07 10.68L40.07 10.68L40.07 10.68Q40.22 10.88 40.22 11.17L40.22 11.17L40.22 11.17Q40.22 11.62 40.07 12.15L40.07 12.15L40.07 12.15Q39.91 12.68 39.62 13.40L39.62 13.40L39.76 13.47L39.76 13.47Q40.43 11.93 41.16 11.17L41.16 11.17L41.16 11.17Q41.89 10.42 42.55 10.42L42.55 10.42L42.55 10.42Q42.97 10.42 43.16 10.58L43.16 10.58L43.16 10.58Q43.36 10.74 43.36 11.10L43.36 11.10L43.36 11.10Q43.36 11.49 43.02 11.73L43.02 11.73L43.02 11.73Q42.69 11.96 42.17 11.96L42.17 11.96L42.17 11.96Q41.41 11.96 40.67 12.89L40.67 12.89L40.67 12.89Q39.93 13.82 39.46 15.29L39.46 15.29L39.46 15.29Q38.99 16.76 38.99 18.27L38.99 18.27L38.99 18.27Q38.99 18.70 39.13 18.86L39.13 18.86L39.13 18.86Q38.81 19.18 38.42 19.18L38.42 19.18ZM51.66 11.30L51.66 11.30Q51.66 11.63 51.58 12.06L51.58 12.06L51.58 12.06Q51.49 12.49 51.27 13.43L51.27 13.43L51.27 13.43Q50.92 14.91 50.72 16.00L50.72 16.00L50.72 16.00Q50.53 17.09 50.53 18.27L50.53 18.27L50.53 18.27Q50.53 18.66 50.72 18.86L50.72 18.86L50.72 18.86Q50.40 19.18 50.01 19.18L50.01 19.18L50.01 19.18Q49.60 19.18 49.38 18.91L49.38 18.91L49.38 18.91Q49.15 18.65 49.15 18.13L49.15 18.13L49.15 18.13Q49.15 17.77 49.27 17.21L49.27 17.21L49.13 17.14L49.13 17.14Q48.61 18.12 47.83 18.65L47.83 18.65L47.83 18.65Q47.05 19.18 46.17 19.18L46.17 19.18L46.17 19.18Q45.42 19.18 44.84 18.77L44.84 18.77L44.84 18.77Q44.27 18.37 43.95 17.62L43.95 17.62L43.95 17.62Q43.64 16.87 43.64 15.89L43.64 15.89L43.64 15.89Q43.64 14.39 44.35 13.14L44.35 13.14L44.35 13.14Q45.07 11.89 46.29 11.16L46.29 11.16L46.29 11.16Q47.52 10.43 48.96 10.43L48.96 10.43L48.96 10.43Q49.62 10.43 50.33 10.54L50.33 10.54L50.33 10.54Q50.47 10.77 50.48 10.93L50.48 10.93L50.48 10.93Q50.72 10.78 50.97 10.78L50.97 10.78L50.97 10.78Q51.30 10.78 51.48 10.91L51.48 10.91L51.48 10.91Q51.66 11.05 51.66 11.30L51.66 11.30ZM46.70 18.13L46.70 18.13Q49.42 18.13 50.32 11.07L50.32 11.07L50.32 11.07Q48.66 11.10 47.49 11.75L47.49 11.75L47.49 11.75Q46.31 12.39 45.70 13.49L45.70 13.49L45.70 13.49Q45.09 14.59 45.09 15.97L45.09 15.97L45.09 15.97Q45.09 17.00 45.51 17.56L45.51 17.56L45.51 17.56Q45.93 18.13 46.70 18.13L46.70 18.13ZM60.98 18.17L60.98 18.17Q60.98 18.34 61.05 18.56L61.05 18.56L61.05 18.56Q61.12 18.77 61.24 18.86L61.24 18.86L61.24 18.86Q60.86 19.18 60.35 19.18L60.35 19.18L60.35 19.18Q60.03 19.18 59.84 18.96L59.84 18.96L59.84 18.96Q59.65 18.73 59.65 18.30L59.65 18.30L59.65 18.30Q59.65 18.09 59.75 17.21L59.75 17.21L59.58 17.14L59.58 17.14Q59.07 18.12 58.29 18.65L58.29 18.65L58.29 18.65Q57.51 19.18 56.63 19.18L56.63 19.18L56.63 19.18Q55.87 19.18 55.30 18.77L55.30 18.77L55.30 18.77Q54.73 18.37 54.41 17.62L54.41 17.62L54.41 17.62Q54.10 16.87 54.10 15.89L54.10 15.89L54.10 15.89Q54.10 14.50 54.81 13.33L54.81 13.33L54.81 13.33Q55.52 12.15 56.75 11.47L56.75 11.47L56.75 11.47Q57.97 10.78 59.42 10.78L59.42 10.78L59.42 10.78Q60.10 10.78 60.72 10.88L60.72 10.88L61.04 9.07L60.47 8.47L60.47 8.47Q60.73 8.25 61.12 8.11L61.12 8.11L61.12 8.11Q61.50 7.98 61.82 7.98L61.82 7.98L61.82 7.98Q62.16 7.98 62.30 8.14L62.30 8.14L62.30 8.14Q62.44 8.30 62.44 8.69L62.44 8.69L62.44 8.69Q62.44 8.95 62.32 9.51L62.32 9.51L62.32 9.51Q62.20 10.08 62.05 10.75L62.05 10.75L62.05 10.75Q61.56 12.95 61.27 14.66L61.27 14.66L61.27 14.66Q60.98 16.37 60.98 18.17L60.98 18.17ZM60.00 15.40L60.00 15.40Q60.33 13.17 60.63 11.42L60.63 11.42L60.63 11.42Q59.07 11.48 57.92 12.07L57.92 12.07L57.92 12.07Q56.77 12.66 56.16 13.66L56.16 13.66L56.16 13.66Q55.55 14.67 55.55 15.97L55.55 15.97L55.55 15.97Q55.55 17.00 55.97 17.56L55.97 17.56L55.97 17.56Q56.39 18.13 57.16 18.13L57.16 18.13L57.16 18.13Q57.99 18.13 58.78 17.38L58.78 17.38L58.78 17.38Q59.57 16.63 60.00 15.37L60.00 15.37L60.00 15.40ZM67.06 9.13L67.06 9.13Q66.67 9.13 66.44 8.94L66.44 8.94L66.44 8.94Q66.21 8.75 66.21 8.43L66.21 8.43L66.21 8.43Q66.21 8.06 66.50 7.78L66.50 7.78L66.50 7.78Q66.79 7.49 67.30 7.49L67.30 7.49L67.30 7.49Q67.70 7.49 67.93 7.69L67.93 7.69L67.93 7.69Q68.15 7.88 68.15 8.19L68.15 8.19L68.15 8.19Q68.15 8.58 67.85 8.86L67.85 8.86L67.85 8.86Q67.55 9.13 67.06 9.13L67.06 9.13ZM65.72 19.18L65.72 19.18Q65.34 19.18 65.14 18.99L65.14 18.99L65.14 18.99Q64.95 18.80 64.95 18.37L64.95 18.37L64.95 18.37Q64.95 17.78 65.22 16.26L65.22 16.26L65.22 16.26Q65.49 14.74 66.22 11.48L66.22 11.48L65.65 10.91L65.65 10.91Q65.91 10.68 66.28 10.56L66.28 10.56L66.28 10.56Q66.64 10.43 66.93 10.43L66.93 10.43L66.93 10.43Q67.31 10.43 67.47 10.58L67.47 10.58L67.47 10.58Q67.63 10.74 67.63 11.13L67.63 11.13L67.63 11.13Q67.63 11.20 67.40 12.15L67.40 12.15L67.40 12.15Q66.93 14.01 66.62 15.60L66.62 15.60L66.62 15.60Q66.30 17.19 66.30 18.27L66.30 18.27L66.30 18.27Q66.30 18.70 66.50 18.87L66.50 18.87L66.50 18.87Q66.15 19.18 65.72 19.18L65.72 19.18ZM75.43 19.18L75.43 19.18Q74.65 19.18 74.65 18.37L74.65 18.37L74.65 18.37Q74.65 17.91 74.89 16.56L74.89 16.56L74.89 16.56Q75.12 15.20 75.64 12.53L75.64 12.53L75.64 12.53Q75.78 11.82 75.95 10.95L75.95 10.95L75.95 10.95Q76.12 10.08 76.30 9.07L76.30 9.07L75.73 8.47L75.73 8.47Q75.99 8.25 76.38 8.11L76.38 8.11L76.38 8.11Q76.76 7.98 77.08 7.98L77.08 7.98L77.08 7.98Q77.42 7.98 77.56 8.14L77.56 8.14L77.56 8.14Q77.70 8.30 77.70 8.69L77.70 8.69L77.70 8.69Q77.70 8.95 77.62 9.35L77.62 9.35L77.62 9.35Q77.53 9.74 77.34 10.56L77.34 10.56L77.34 10.56Q76.96 12.10 76.78 12.98L76.78 12.98L76.92 13.05L76.92 13.05Q77.67 11.68 78.68 11.05L78.68 11.05L78.68 11.05Q79.69 10.43 80.68 10.43L80.68 10.43L80.68 10.43Q81.61 10.43 82.05 10.89L82.05 10.89L82.05 10.89Q82.50 11.35 82.50 12.33L82.50 12.33L82.50 12.33Q82.50 12.91 82.38 13.53L82.38 13.53L82.38 13.53Q82.25 14.15 82.01 15.09L82.01 15.09L82.01 15.09Q81.73 16.25 81.61 16.92L81.61 16.92L81.61 16.92Q81.48 17.58 81.48 18.27L81.48 18.27L81.48 18.27Q81.48 18.68 81.63 18.86L81.63 18.86L81.63 18.86Q81.30 19.18 80.91 19.18L80.91 19.18L80.91 19.18Q80.50 19.18 80.32 18.98L80.32 18.98L80.32 18.98Q80.14 18.77 80.14 18.37L80.14 18.37L80.14 18.37Q80.14 17.84 80.25 17.19L80.25 17.19L80.25 17.19Q80.36 16.53 80.60 15.34L80.60 15.34L80.60 15.34Q80.81 14.35 80.92 13.72L80.92 13.72L80.92 13.72Q81.03 13.09 81.03 12.64L81.03 12.64L81.03 12.64Q81.03 11.37 80.08 11.37L80.08 11.37L80.08 11.37Q79.16 11.37 78.20 12.26L78.20 12.26L78.20 12.26Q77.25 13.16 76.63 14.74L76.63 14.74L76.63 14.74Q76.01 16.32 76.01 18.27L76.01 18.27L76.01 18.27Q76.01 18.70 76.15 18.86L76.15 18.86L76.15 18.86Q75.82 19.18 75.43 19.18L75.43 19.18ZM92.85 11.30L92.85 11.30Q92.85 11.63 92.76 12.06L92.76 12.06L92.76 12.06Q92.68 12.49 92.46 13.43L92.46 13.43L92.46 13.43Q92.11 14.91 91.91 16.00L91.91 16.00L91.91 16.00Q91.71 17.09 91.71 18.27L91.71 18.27L91.71 18.27Q91.71 18.66 91.91 18.86L91.91 18.86L91.91 18.86Q91.59 19.18 91.20 19.18L91.20 19.18L91.20 19.18Q90.79 19.18 90.57 18.91L90.57 18.91L90.57 18.91Q90.34 18.65 90.34 18.13L90.34 18.13L90.34 18.13Q90.34 17.77 90.45 17.21L90.45 17.21L90.31 17.14L90.31 17.14Q89.80 18.12 89.02 18.65L89.02 18.65L89.02 18.65Q88.24 19.18 87.36 19.18L87.36 19.18L87.36 19.18Q86.60 19.18 86.03 18.77L86.03 18.77L86.03 18.77Q85.46 18.37 85.14 17.62L85.14 17.62L85.14 17.62Q84.83 16.87 84.83 15.89L84.83 15.89L84.83 15.89Q84.83 14.39 85.54 13.14L85.54 13.14L85.54 13.14Q86.25 11.89 87.48 11.16L87.48 11.16L87.48 11.16Q88.70 10.43 90.15 10.43L90.15 10.43L90.15 10.43Q90.80 10.43 91.52 10.54L91.52 10.54L91.52 10.54Q91.66 10.77 91.67 10.93L91.67 10.93L91.67 10.93Q91.91 10.78 92.16 10.78L92.16 10.78L92.16 10.78Q92.48 10.78 92.67 10.91L92.67 10.91L92.67 10.91Q92.85 11.05 92.85 11.30L92.85 11.30ZM87.89 18.13L87.89 18.13Q90.61 18.13 91.50 11.07L91.50 11.07L91.50 11.07Q89.85 11.10 88.68 11.75L88.68 11.75L88.68 11.75Q87.50 12.39 86.89 13.49L86.89 13.49L86.89 13.49Q86.28 14.59 86.28 15.97L86.28 15.97L86.28 15.97Q86.28 17.00 86.70 17.56L86.70 17.56L86.70 17.56Q87.12 18.13 87.89 18.13L87.89 18.13ZM96.52 19.18L96.52 19.18Q95.73 19.18 95.73 18.37L95.73 18.37L95.73 18.37Q95.73 17.64 96.15 15.55L96.15 15.55L96.15 15.55Q96.57 13.47 97.03 11.70L97.03 11.70L96.43 11.10L96.43 11.10Q96.71 10.82 97.12 10.65L97.12 10.65L97.12 10.65Q97.52 10.49 97.80 10.49L97.80 10.49L97.80 10.49Q98.18 10.49 98.31 10.63L98.31 10.63L98.31 10.63Q98.45 10.77 98.45 11.17L98.45 11.17L98.45 11.17Q98.45 11.55 98.32 12.03L98.32 12.03L98.32 12.03Q98.20 12.50 97.99 12.92L97.99 12.92L98.13 12.99L98.13 12.99Q98.83 11.63 99.66 11.03L99.66 11.03L99.66 11.03Q100.49 10.43 101.51 10.43L101.51 10.43L101.51 10.43Q102.42 10.43 102.81 10.91L102.81 10.91L102.81 10.91Q103.19 11.40 103.19 12.25L103.19 12.25L103.19 12.25Q103.19 12.54 103.11 12.92L103.11 12.92L103.25 12.99L103.25 12.99Q103.98 11.63 104.84 11.03L104.84 11.03L104.84 11.03Q105.70 10.43 106.75 10.43L106.75 10.43L106.75 10.43Q107.67 10.43 108.12 10.89L108.12 10.89L108.12 10.89Q108.57 11.35 108.57 12.33L108.57 12.33L108.57 12.33Q108.57 12.89 108.45 13.50L108.45 13.50L108.45 13.50Q108.33 14.10 108.09 15.09L108.09 15.09L108.09 15.09Q107.83 16.13 107.70 16.85L107.70 16.85L107.70 16.85Q107.56 17.57 107.56 18.27L107.56 18.27L107.56 18.27Q107.56 18.70 107.70 18.86L107.70 18.86L107.70 18.86Q107.38 19.18 106.99 19.18L106.99 19.18L106.99 19.18Q106.20 19.18 106.20 18.30L106.20 18.30L106.20 18.30Q106.20 17.81 106.32 17.16L106.32 17.16L106.32 17.16Q106.43 16.52 106.67 15.37L106.67 15.37L106.67 15.37Q106.90 14.28 107.01 13.68L107.01 13.68L107.01 13.68Q107.11 13.08 107.11 12.63L107.11 12.63L107.11 12.63Q107.11 11.37 106.15 11.37L106.15 11.37L106.15 11.37Q105.29 11.37 104.40 12.26L104.40 12.26L104.40 12.26Q103.50 13.16 102.91 14.74L102.91 14.74L102.91 14.74Q102.33 16.32 102.33 18.27L102.33 18.27L102.33 18.27Q102.33 18.70 102.47 18.86L102.47 18.86L102.47 18.86Q102.14 19.18 101.75 19.18L101.75 19.18L101.75 19.18Q100.97 19.18 100.97 18.30L100.97 18.30L100.97 18.30Q100.97 17.81 101.08 17.16L101.08 17.16L101.08 17.16Q101.19 16.52 101.43 15.37L101.43 15.37L101.43 15.37Q101.67 14.28 101.77 13.68L101.77 13.68L101.77 13.68Q101.88 13.08 101.88 12.63L101.88 12.63L101.88 12.63Q101.88 11.37 100.91 11.37L100.91 11.37L100.91 11.37Q100.06 11.37 99.16 12.26L99.16 12.26L99.16 12.26Q98.27 13.16 97.68 14.74L97.68 14.74L97.68 14.74Q97.09 16.32 97.09 18.27L97.09 18.27L97.09 18.27Q97.09 18.70 97.23 18.86L97.23 18.86L97.23 18.86Q96.91 19.18 96.52 19.18L96.52 19.18ZM117.77 18.17L117.77 18.17Q117.77 18.34 117.84 18.56L117.84 18.56L117.84 18.56Q117.91 18.77 118.02 18.86L118.02 18.86L118.02 18.86Q117.64 19.18 117.14 19.18L117.14 19.18L117.14 19.18Q116.82 19.18 116.63 18.96L116.63 18.96L116.63 18.96Q116.44 18.73 116.44 18.30L116.44 18.30L116.44 18.30Q116.44 18.09 116.54 17.21L116.54 17.21L116.37 17.14L116.37 17.14Q115.85 18.12 115.07 18.65L115.07 18.65L115.07 18.65Q114.30 19.18 113.41 19.18L113.41 19.18L113.41 19.18Q112.66 19.18 112.08 18.77L112.08 18.77L112.08 18.77Q111.51 18.37 111.20 17.62L111.20 17.62L111.20 17.62Q110.88 16.87 110.88 15.89L110.88 15.89L110.88 15.89Q110.88 14.50 111.59 13.33L111.59 13.33L111.59 13.33Q112.31 12.15 113.53 11.47L113.53 11.47L113.53 11.47Q114.76 10.78 116.20 10.78L116.20 10.78L116.20 10.78Q116.89 10.78 117.50 10.88L117.50 10.88L117.82 9.07L117.25 8.47L117.25 8.47Q117.52 8.25 117.90 8.11L117.90 8.11L117.90 8.11Q118.29 7.98 118.61 7.98L118.61 7.98L118.61 7.98Q118.94 7.98 119.08 8.14L119.08 8.14L119.08 8.14Q119.22 8.30 119.22 8.69L119.22 8.69L119.22 8.69Q119.22 8.95 119.11 9.51L119.11 9.51L119.11 9.51Q118.99 10.08 118.83 10.75L118.83 10.75L118.83 10.75Q118.34 12.95 118.06 14.66L118.06 14.66L118.06 14.66Q117.77 16.37 117.77 18.17L117.77 18.17ZM116.79 15.40L116.79 15.40Q117.11 13.17 117.42 11.42L117.42 11.42L117.42 11.42Q115.85 11.48 114.70 12.07L114.70 12.07L114.70 12.07Q113.55 12.66 112.95 13.66L112.95 13.66L112.95 13.66Q112.34 14.67 112.34 15.97L112.34 15.97L112.34 15.97Q112.34 17.00 112.76 17.56L112.76 17.56L112.76 17.56Q113.18 18.13 113.95 18.13L113.95 18.13L113.95 18.13Q114.77 18.13 115.56 17.38L115.56 17.38L115.56 17.38Q116.35 16.63 116.79 15.37L116.79 15.37L116.79 15.40ZM123.84 9.13L123.84 9.13Q123.45 9.13 123.22 8.94L123.22 8.94L123.22 8.94Q122.99 8.75 122.99 8.43L122.99 8.43L122.99 8.43Q122.99 8.06 123.28 7.78L123.28 7.78L123.28 7.78Q123.58 7.49 124.08 7.49L124.08 7.49L124.08 7.49Q124.49 7.49 124.71 7.69L124.71 7.69L124.71 7.69Q124.94 7.88 124.94 8.19L124.94 8.19L124.94 8.19Q124.94 8.58 124.64 8.86L124.64 8.86L124.64 8.86Q124.33 9.13 123.84 9.13L123.84 9.13ZM122.50 19.18L122.50 19.18Q122.12 19.18 121.93 18.99L121.93 18.99L121.93 18.99Q121.73 18.80 121.73 18.37L121.73 18.37L121.73 18.37Q121.73 17.78 122.00 16.26L122.00 16.26L122.00 16.26Q122.28 14.74 123.00 11.48L123.00 11.48L122.43 10.91L122.43 10.91Q122.70 10.68 123.06 10.56L123.06 10.56L123.06 10.56Q123.42 10.43 123.72 10.43L123.72 10.43L123.72 10.43Q124.10 10.43 124.26 10.58L124.26 10.58L124.26 10.58Q124.42 10.74 124.42 11.13L124.42 11.13L124.42 11.13Q124.42 11.20 124.18 12.15L124.18 12.15L124.18 12.15Q123.72 14.01 123.40 15.60L123.40 15.60L123.40 15.60Q123.09 17.19 123.09 18.27L123.09 18.27L123.09 18.27Q123.09 18.70 123.28 18.87L123.28 18.87L123.28 18.87Q122.93 19.18 122.50 19.18L122.50 19.18Z"></path></g><!----><g data-v-423bf9ae="" id="2c2a4897-0117-4df3-a0f2-89f1841835bf" transform="matrix(2.8125,0,0,2.8125,0,0)" stroke="none" fill="black"><path d="M0 16l16 16 16-16L16 0 0 16zm16 13.172L2.828 16 16 2.828 29.172 16 16 29.172z"></path><path d="M14.751 9.991v4.76h-2.262v-4.76H9.991v12.018h2.498v-4.76h2.262v4.76h2.498v-4.76h2.262v4.76h2.498V9.991h-2.498v4.76h-2.262v-4.76z"></path></g><!----><g data-v-423bf9ae="" id="4c67356c-8b95-456a-b60e-4f64a43f16c9" fill="black" transform="matrix(4.769860328236227,0,0,4.769860328236227,100.5079639026589,37.009272638986445)"><path d="M1.99 12.43L1.99 12.43L1.99 12.43Q1.99 11.45 2.22 10.51L2.22 10.51L2.22 10.51Q2.45 9.56 2.87 8.71L2.87 8.71L2.87 8.71Q3.29 7.87 3.87 7.16L3.87 7.16L3.87 7.16Q4.45 6.45 5.15 5.94L5.15 5.94L5.15 5.94Q5.84 5.42 6.62 5.13L6.62 5.13L6.62 5.13Q7.41 4.84 8.23 4.84L8.23 4.84L8.23 4.84Q9.20 4.84 9.74 5.25L9.74 5.25L9.74 5.25Q10.28 5.66 10.28 6.38L10.28 6.38L10.28 6.38Q10.28 6.66 10.20 6.96L10.20 6.96L10.20 6.96Q10.12 7.25 9.97 7.54L9.97 7.54L9.97 7.54Q9.83 7.83 9.63 8.09L9.63 8.09L9.63 8.09Q9.44 8.36 9.20 8.55L9.20 8.55L9.20 8.55Q8.83 8.50 8.57 8.22L8.57 8.22L8.57 8.22Q8.30 7.95 8.23 7.59L8.23 7.59L8.23 7.59Q8.72 7.18 9.01 6.74L9.01 6.74L9.01 6.74Q9.30 6.30 9.30 5.94L9.30 5.94L9.30 5.94Q9.30 5.32 8.53 5.32L8.53 5.32L8.53 5.32Q8.20 5.32 7.86 5.45L7.86 5.45L7.86 5.45Q7.52 5.59 7.17 5.82L7.17 5.82L7.17 5.82Q6.82 6.06 6.49 6.40L6.49 6.40L6.49 6.40Q6.16 6.73 5.88 7.14L5.88 7.14L5.88 7.14Q3.93 9.94 3.93 12.87L3.93 12.87L3.93 12.87Q3.93 13.90 4.26 14.53L4.26 14.53L4.26 14.53Q4.58 15.16 5.11 15.27L5.11 15.27L5.11 15.27Q5.71 15.13 6.64 14.50L6.64 14.50L6.64 14.50Q7.56 13.87 8.65 12.87L8.65 12.87L8.65 12.87Q8.79 13.01 8.82 13.16L8.82 13.16L8.82 13.16Q8.41 13.69 7.98 14.18L7.98 14.18L7.98 14.18Q7.55 14.67 7.12 15.08L7.12 15.08L7.12 15.08Q6.69 15.48 6.28 15.79L6.28 15.79L6.28 15.79Q5.87 16.10 5.52 16.27L5.52 16.27L5.52 16.27Q3.78 16.24 2.88 15.27L2.88 15.27L2.88 15.27Q1.99 14.31 1.99 12.43ZM23.32 4.98L23.32 4.98L23.32 4.98Q23.59 5.10 23.87 5.27L23.87 5.27L23.87 5.27Q24.15 5.45 24.39 5.63L24.39 5.63L24.39 5.63Q24.63 5.81 24.79 5.98L24.79 5.98L24.79 5.98Q24.95 6.16 24.96 6.27L24.96 6.27L24.96 6.27Q24.72 6.22 24.49 6.20L24.49 6.20L24.49 6.20Q24.25 6.17 24.05 6.17L24.05 6.17L24.05 6.17Q23.42 6.17 22.80 6.48L22.80 6.48L22.80 6.48Q22.18 6.79 21.62 7.32L21.62 7.32L21.62 7.32Q21.06 7.85 20.58 8.57L20.58 8.57L20.58 8.57Q20.10 9.28 19.76 10.09L19.76 10.09L19.76 10.09Q19.42 10.91 19.22 11.77L19.22 11.77L19.22 11.77Q19.03 12.64 19.03 13.48L19.03 13.48L19.03 13.48Q19.03 14.57 19.39 15.11L19.39 15.11L19.39 15.11Q19.75 15.64 20.45 15.64L20.45 15.64L20.45 15.64Q20.79 15.64 21.18 15.51L21.18 15.51L21.18 15.51Q21.57 15.37 21.98 15.13L21.98 15.13L21.98 15.13Q22.39 14.90 22.78 14.56L22.78 14.56L22.78 14.56Q23.17 14.22 23.51 13.82L23.51 13.82L23.51 13.82Q24.00 13.23 24.39 12.48L24.39 12.48L24.39 12.48Q24.78 11.73 25.05 10.89L25.05 10.89L25.05 10.89Q25.33 10.05 25.47 9.16L25.47 9.16L25.47 9.16Q25.62 8.27 25.62 7.42L25.62 7.42L25.62 7.42Q25.62 7.08 25.61 6.85L25.61 6.85L25.61 6.85Q25.59 6.62 25.57 6.46L25.57 6.46L25.57 6.46Q25.55 6.30 25.54 6.20L25.54 6.20L25.54 6.20Q25.52 6.10 25.51 6.03L25.51 6.03L25.51 6.03Q25.68 6.12 25.88 6.24L25.88 6.24L25.88 6.24Q26.08 6.36 26.26 6.59L26.26 6.59L26.26 6.59Q26.43 6.82 26.55 7.20L26.55 7.20L26.55 7.20Q26.67 7.57 26.67 8.18L26.67 8.18L26.67 8.18Q26.67 9.16 26.44 10.10L26.44 10.10L26.44 10.10Q26.21 11.05 25.80 11.90L25.80 11.90L25.80 11.90Q25.38 12.75 24.82 13.50L24.82 13.50L24.82 13.50Q24.26 14.24 23.62 14.80L23.62 14.80L23.62 14.80Q22.78 15.54 21.83 15.95L21.83 15.95L21.83 15.95Q20.87 16.35 19.99 16.35L19.99 16.35L19.99 16.35Q18.70 16.35 18.02 15.53L18.02 15.53L18.02 15.53Q17.35 14.71 17.35 13.12L17.35 13.12L17.35 13.12Q17.35 12.26 17.54 11.31L17.54 11.31L17.54 11.31Q17.72 10.36 18.07 9.44L18.07 9.44L18.07 9.44Q18.41 8.51 18.89 7.68L18.89 7.68L18.89 7.68Q19.36 6.85 19.93 6.21L19.93 6.21L19.93 6.21Q20.50 5.57 21.15 5.19L21.15 5.19L21.15 5.19Q21.80 4.82 22.48 4.82L22.48 4.82L22.48 4.82Q22.71 4.82 22.90 4.85L22.90 4.85L22.90 4.85Q23.10 4.89 23.32 4.98ZM34.93 14.45L34.93 14.45L34.93 14.45Q35.14 13.99 35.43 13.26L35.43 13.26L35.43 13.26Q35.73 12.53 36.05 11.68L36.05 11.68L36.05 11.68Q36.37 10.84 36.71 9.95L36.71 9.95L36.71 9.95Q37.04 9.06 37.34 8.26L37.34 8.26L37.34 8.26Q37.63 7.46 37.85 6.83L37.85 6.83L37.85 6.83Q38.07 6.20 38.16 5.87L38.16 5.87L38.16 5.87Q37.28 6.23 36.65 6.97L36.65 6.97L36.65 6.97Q36.02 7.71 35.70 8.83L35.70 8.83L35.70 8.83Q35.38 8.72 35.11 8.43L35.11 8.43L35.11 8.43Q34.85 8.15 34.76 7.71L34.76 7.71L34.76 7.71Q34.90 7.07 35.29 6.54L35.29 6.54L35.29 6.54Q35.67 6.01 36.26 5.63L36.26 5.63L36.26 5.63Q36.85 5.25 37.62 5.05L37.62 5.05L37.62 5.05Q38.39 4.84 39.27 4.84L39.27 4.84L39.27 4.84Q40.39 4.84 41.33 5.17L41.33 5.17L41.33 5.17Q42.27 5.50 42.94 6.09L42.94 6.09L42.94 6.09Q43.61 6.68 43.99 7.50L43.99 7.50L43.99 7.50Q44.37 8.33 44.37 9.34L44.37 9.34L44.37 9.34Q44.37 10.71 43.86 11.96L43.86 11.96L43.86 11.96Q43.36 13.20 42.50 14.15L42.50 14.15L42.50 14.15Q41.64 15.11 40.50 15.67L40.50 15.67L40.50 15.67Q39.37 16.24 38.12 16.24L38.12 16.24L38.12 16.24Q36.97 16.24 36.16 15.79L36.16 15.79L36.16 15.79Q35.34 15.33 34.93 14.45ZM39.87 5.54L39.87 5.54L39.87 5.54Q39.17 5.54 38.54 5.74L38.54 5.74L38.54 5.74Q39.16 5.96 39.56 6.21L39.56 6.21L39.56 6.21Q39.97 6.45 40.12 6.59L40.12 6.59L40.12 6.59Q40.01 6.75 39.80 7.14L39.80 7.14L39.80 7.14Q39.58 7.53 39.29 8.09L39.29 8.09L39.29 8.09Q39.00 8.65 38.68 9.32L38.68 9.32L38.68 9.32Q38.36 9.98 38.05 10.68L38.05 10.68L38.05 10.68Q37.25 12.46 36.90 13.48L36.90 13.48L36.90 13.48Q36.54 14.50 36.54 14.90L36.54 14.90L36.54 14.90Q36.74 14.97 37.02 14.99L37.02 14.99L37.02 14.99Q37.30 15.02 37.62 15.02L37.62 15.02L37.62 15.02Q38.75 15.02 39.77 14.50L39.77 14.50L39.77 14.50Q40.78 13.97 41.55 13.09L41.55 13.09L41.55 13.09Q42.31 12.21 42.75 11.04L42.75 11.04L42.75 11.04Q43.19 9.87 43.19 8.58L43.19 8.58L43.19 8.58Q43.19 7.14 42.29 6.34L42.29 6.34L42.29 6.34Q41.40 5.54 39.87 5.54ZM57.67 9.21L57.67 9.21L57.67 9.21Q58.13 9.21 58.39 9.46L58.39 9.46L58.39 9.46Q58.65 9.72 58.65 10.16L58.65 10.16L58.65 10.16Q58.65 10.28 58.63 10.39L58.63 10.39L58.63 10.39Q58.60 10.51 58.58 10.60L58.58 10.60L58.58 10.60Q58.39 10.57 58.17 10.55L58.17 10.55L58.17 10.55Q57.95 10.53 57.64 10.53L57.64 10.53L57.64 10.53Q57.04 10.53 56.42 10.63L56.42 10.63L56.42 10.63Q55.80 10.74 55.24 10.81L55.24 10.81L55.24 10.81Q54.92 11.55 54.66 12.24L54.66 12.24L54.66 12.24Q54.39 12.94 54.20 13.51L54.20 13.51L54.20 13.51Q54.01 14.08 53.91 14.50L53.91 14.50L53.91 14.50Q53.80 14.92 53.79 15.13L53.79 15.13L53.79 15.13Q54.92 14.90 56.08 14.73L56.08 14.73L56.08 14.73Q57.23 14.56 58.51 14.48L58.51 14.48L58.51 14.48Q58.66 14.71 58.77 14.99L58.77 14.99L58.77 14.99Q58.87 15.27 58.87 15.60L58.87 15.60L58.87 15.60Q58.87 15.68 58.87 15.78L58.87 15.78L58.87 15.78Q58.87 15.88 58.84 15.97L58.84 15.97L58.84 15.97Q58.45 15.96 58.02 15.95L58.02 15.95L58.02 15.95Q57.58 15.95 56.88 15.95L56.88 15.95L56.88 15.95Q56.42 15.95 56.01 15.97L56.01 15.97L56.01 15.97Q55.59 15.99 55.17 16.03L55.17 16.03L55.17 16.03Q54.75 16.07 54.28 16.14L54.28 16.14L54.28 16.14Q53.82 16.21 53.23 16.31L53.23 16.31L53.23 16.31Q52.58 16.06 51.98 15.08L51.98 15.08L51.98 15.08Q52.22 14.57 52.65 13.54L52.65 13.54L52.65 13.54Q53.07 12.52 53.73 10.79L53.73 10.79L53.73 10.79Q53.10 10.60 52.91 10.09L52.91 10.09L52.91 10.09Q52.98 10.02 53.31 9.92L53.31 9.92L53.31 9.92Q53.65 9.81 54.14 9.70L54.14 9.70L54.14 9.70Q54.35 9.16 54.49 8.75L54.49 8.75L54.49 8.75Q54.64 8.34 54.75 7.99L54.75 7.99L54.75 7.99Q54.87 7.63 54.96 7.29L54.96 7.29L54.96 7.29Q55.05 6.94 55.13 6.54L55.13 6.54L55.13 6.54Q54.64 6.51 54.36 6.27L54.36 6.27L54.36 6.27Q54.08 6.02 54.08 5.63L54.08 5.63L54.08 5.63Q54.08 5.52 54.12 5.36L54.12 5.36L54.12 5.36Q54.15 5.21 54.19 5.10L54.19 5.10L54.19 5.10Q54.47 5.14 54.73 5.15L54.73 5.15L54.73 5.15Q54.99 5.17 55.41 5.17L55.41 5.17L55.41 5.17Q56.29 5.17 57.06 5.12L57.06 5.12L57.06 5.12Q57.83 5.07 58.46 5.01L58.46 5.01L58.46 5.01Q59.08 4.96 59.53 4.91L59.53 4.91L59.53 4.91Q59.98 4.86 60.21 4.86L60.21 4.86L60.21 4.86Q60.54 4.86 60.79 5.19L60.79 5.19L60.79 5.19Q61.04 5.53 61.17 6.15L61.17 6.15L61.17 6.15Q60.73 6.10 60.46 6.09L60.46 6.09L60.46 6.09Q60.19 6.08 59.98 6.08L59.98 6.08L59.98 6.08Q59.21 6.08 58.57 6.15L58.57 6.15L58.57 6.15Q57.93 6.23 57.34 6.31L57.34 6.31L57.34 6.31Q57.26 6.44 57.16 6.64L57.16 6.64L57.16 6.64Q57.05 6.83 56.88 7.18L56.88 7.18L56.88 7.18Q56.71 7.53 56.47 8.06L56.47 8.06L56.47 8.06Q56.22 8.60 55.87 9.39L55.87 9.39L55.87 9.39Q56.41 9.31 56.88 9.26L56.88 9.26L56.88 9.26Q57.34 9.21 57.67 9.21ZM72.37 10.35L72.37 10.35L72.37 10.35Q73.42 9.20 74.25 7.91L74.25 7.91L74.25 7.91Q75.08 6.62 75.80 5.01L75.80 5.01L75.80 5.01Q76.16 5.05 76.50 5.21L76.50 5.21L76.50 5.21Q76.83 5.36 77.03 5.56L77.03 5.56L77.03 5.56Q76.26 6.48 75.64 7.24L75.64 7.24L75.64 7.24Q75.01 7.99 74.49 8.66L74.49 8.66L74.49 8.66Q73.98 9.32 73.53 9.93L73.53 9.93L73.53 9.93Q73.09 10.54 72.67 11.16L72.67 11.16L72.67 11.16Q72.46 11.87 72.28 12.60L72.28 12.60L72.28 12.60Q72.10 13.33 71.96 13.99L71.96 13.99L71.96 13.99Q71.82 14.66 71.74 15.22L71.74 15.22L71.74 15.22Q71.67 15.79 71.67 16.20L71.67 16.20L71.67 16.20Q71.51 16.20 71.18 16.14L71.18 16.14L71.18 16.14Q70.84 16.07 70.49 15.99L70.49 15.99L70.49 15.99Q70.14 15.90 69.85 15.82L69.85 15.82L69.85 15.82Q69.57 15.74 69.51 15.68L69.51 15.68L69.51 15.68Q69.73 15.30 69.95 14.75L69.95 14.75L69.95 14.75Q70.17 14.20 70.38 13.59L70.38 13.59L70.38 13.59Q70.59 12.98 70.78 12.36L70.78 12.36L70.78 12.36Q70.98 11.73 71.15 11.20L71.15 11.20L71.15 11.20Q70.80 10.11 70.47 9.15L70.47 9.15L70.47 9.15Q70.14 8.19 69.83 7.41L69.83 7.41L69.83 7.41Q69.52 6.64 69.24 6.08L69.24 6.08L69.24 6.08Q68.96 5.52 68.71 5.22L68.71 5.22L68.71 5.22Q68.85 5.17 69.14 5.11L69.14 5.11L69.14 5.11Q69.43 5.05 69.77 5.00L69.77 5.00L69.77 5.00Q70.11 4.94 70.47 4.91L70.47 4.91L70.47 4.91Q70.83 4.87 71.11 4.86L71.11 4.86L71.11 4.86Q71.11 5.21 71.17 5.71L71.17 5.71L71.17 5.71Q71.23 6.22 71.34 6.79L71.34 6.79L71.34 6.79Q71.44 7.36 71.58 7.95L71.58 7.95L71.58 7.95Q71.72 8.54 71.86 9.03L71.86 9.03L71.86 9.03Q72.00 9.52 72.14 9.88L72.14 9.88L72.14 9.88Q72.27 10.23 72.37 10.35ZM85.55 6.69L85.55 6.69L85.55 6.69Q84.99 6.69 84.69 6.38L84.69 6.38L84.69 6.38Q84.39 6.06 84.39 5.61L84.39 5.61L84.39 5.61Q84.39 5.50 84.43 5.35L84.43 5.35L84.43 5.35Q84.46 5.19 84.52 5.08L84.52 5.08L84.52 5.08Q84.70 5.17 85.06 5.20L85.06 5.20L85.06 5.20Q85.41 5.24 85.89 5.24L85.89 5.24L85.89 5.24Q86.60 5.24 87.51 5.17L87.51 5.17L87.51 5.17Q88.41 5.11 89.24 5.04L89.24 5.04L89.24 5.04Q90.06 4.97 90.69 4.91L90.69 4.91L90.69 4.91Q91.32 4.84 91.50 4.84L91.50 4.84L91.50 4.84Q92.02 4.84 92.25 5.23L92.25 5.23L92.25 5.23Q92.48 5.61 92.60 6.26L92.60 6.26L92.60 6.26Q92.23 6.23 91.88 6.21L91.88 6.21L91.88 6.21Q91.52 6.19 91.27 6.19L91.27 6.19L91.27 6.19Q90.82 6.19 90.36 6.22L90.36 6.22L90.36 6.22Q89.91 6.24 89.45 6.30L89.45 6.30L89.45 6.30Q89.25 6.71 89.01 7.26L89.01 7.26L89.01 7.26Q88.77 7.81 88.54 8.41L88.54 8.41L88.54 8.41Q88.31 9.02 88.10 9.61L88.10 9.61L88.10 9.61Q87.89 10.21 87.74 10.68L87.74 10.68L87.74 10.68Q87.43 11.61 87.20 12.39L87.20 12.39L87.20 12.39Q86.97 13.17 86.79 13.85L86.79 13.85L86.79 13.85Q86.62 14.53 86.49 15.15L86.49 15.15L86.49 15.15Q86.37 15.76 86.27 16.35L86.27 16.35L86.27 16.35Q85.33 16.21 84.70 15.18L84.70 15.18L84.70 15.18Q84.81 14.74 84.97 14.23L84.97 14.23L84.97 14.23Q85.13 13.72 85.35 13.07L85.35 13.07L85.35 13.07Q85.57 12.42 85.86 11.59L85.86 11.59L85.86 11.59Q86.16 10.77 86.53 9.72L86.53 9.72L86.53 9.72Q86.67 9.32 86.83 8.90L86.83 8.90L86.83 8.90Q86.98 8.47 87.13 8.05L87.13 8.05L87.13 8.05Q87.28 7.63 87.39 7.24L87.39 7.24L87.39 7.24Q87.51 6.85 87.60 6.52L87.60 6.52L87.60 6.52Q87.01 6.59 86.48 6.64L86.48 6.64L86.48 6.64Q85.96 6.69 85.55 6.69ZM99.26 16.24L99.26 16.24L99.26 16.24Q98.46 16.00 98.18 15.79L98.18 15.79L98.18 15.79Q97.90 15.57 97.90 15.19L97.90 15.19L97.90 15.19Q97.90 14.77 98.10 14.01L98.10 14.01L98.10 14.01Q98.29 13.24 98.61 12.31L98.61 12.31L98.61 12.31Q98.92 11.37 99.33 10.35L99.33 10.35L99.33 10.35Q99.74 9.32 100.16 8.39L100.16 8.39L100.16 8.39Q100.58 7.45 100.97 6.67L100.97 6.67L100.97 6.67Q101.37 5.89 101.68 5.46L101.68 5.46L101.58 4.87L101.58 4.87Q101.78 4.87 102.13 4.97L102.13 4.97L102.13 4.97Q102.48 5.07 102.84 5.21L102.84 5.21L102.84 5.21Q103.19 5.35 103.47 5.49L103.47 5.49L103.47 5.49Q103.74 5.64 103.77 5.74L103.77 5.74L103.77 5.74Q103.70 6.08 103.66 6.76L103.66 6.76L103.66 6.76Q103.61 7.43 103.61 8.20L103.61 8.20L103.61 8.20Q103.61 9.73 103.73 11.19L103.73 11.19L103.73 11.19Q103.85 12.66 104.29 14.17L104.29 14.17L104.29 14.17Q104.51 13.05 104.77 11.94L104.77 11.94L104.77 11.94Q105.03 10.82 105.31 9.81L105.31 9.81L105.31 9.81Q105.59 8.79 105.87 7.92L105.87 7.92L105.87 7.92Q106.15 7.06 106.41 6.40L106.41 6.40L106.41 6.40Q106.67 5.75 106.89 5.38L106.89 5.38L106.89 5.38Q107.11 5.01 107.30 4.98L107.30 4.98L107.30 4.98Q107.45 5.01 107.63 5.10L107.63 5.10L107.63 5.10Q107.81 5.19 107.98 5.32L107.98 5.32L107.98 5.32Q108.15 5.45 108.29 5.60L108.29 5.60L108.29 5.60Q108.43 5.75 108.51 5.91L108.51 5.91L108.51 5.91Q108.07 6.09 107.63 6.76L107.63 6.76L107.63 6.76Q107.18 7.43 106.78 8.39L106.78 8.39L106.78 8.39Q106.39 9.35 106.04 10.47L106.04 10.47L106.04 10.47Q105.70 11.59 105.44 12.68L105.44 12.68L105.44 12.68Q105.18 13.76 105.03 14.69L105.03 14.69L105.03 14.69Q104.89 15.61 104.87 16.17L104.87 16.17L104.87 16.17Q104.87 16.20 104.89 16.21L104.89 16.21L104.89 16.21Q104.85 16.23 104.80 16.23L104.80 16.23L104.80 16.23Q104.75 16.23 104.71 16.23L104.71 16.23L104.71 16.23Q104.06 16.23 103.56 16.07L103.56 16.07L103.56 16.07Q103.07 15.90 102.91 15.61L102.91 15.61L102.91 15.61Q102.62 14.43 102.42 13.34L102.42 13.34L102.42 13.34Q102.23 12.25 102.09 11.16L102.09 11.16L102.09 11.16Q101.96 10.07 101.88 8.95L101.88 8.95L101.88 8.95Q101.81 7.84 101.77 6.62L101.77 6.62L101.77 6.62Q101.50 7.04 101.21 7.72L101.21 7.72L101.21 7.72Q100.91 8.40 100.63 9.21L100.63 9.21L100.63 9.21Q100.35 10.02 100.09 10.92L100.09 10.92L100.09 10.92Q99.83 11.82 99.64 12.67L99.64 12.67L99.64 12.67Q99.44 13.52 99.33 14.29L99.33 14.29L99.33 14.29Q99.22 15.05 99.22 15.61L99.22 15.61L99.22 15.61Q99.22 15.90 99.22 16.03L99.22 16.03L99.22 16.03Q99.23 16.16 99.26 16.24Z"></path></g></svg>