<svg data-v-423bf9ae="" xmlns="http://www.w3.org/2000/svg" viewBox="0 0 635.106928178456 60" class="font"><!----><!----><!----><g data-v-423bf9ae="" id="f83d9a15-ae51-4808-beeb-6d86a0bdb2e3" fill="white" transform="matrix(5.132591724456826,0,0,5.132591724456826,-6.159112136395265,-38.443109887750296)"><path d="M4.34 19.18L4.34 19.18Q2.87 19.18 2.04 18.30L2.04 18.30L2.04 18.30Q1.20 17.42 1.20 15.85L1.20 15.85L1.20 15.85Q1.20 14.34 1.88 13.10L1.88 13.10L1.88 13.10Q2.55 11.86 3.69 11.14L3.69 11.14L3.69 11.14Q4.83 10.43 6.19 10.43L6.19 10.43L6.19 10.43Q6.99 10.43 7.44 10.68L7.44 10.68L7.44 10.68Q7.90 10.93 7.90 11.37L7.90 11.37L7.90 11.37Q7.90 11.75 7.59 12.01L7.59 12.01L7.59 12.01Q7.28 12.26 6.83 12.26L6.83 12.26L6.83 12.26Q5.75 12.26 5.28 11.33L5.28 11.33L5.28 11.33Q4.13 11.84 3.40 13.09L3.40 13.09L3.40 13.09Q2.67 14.34 2.67 15.95L2.67 15.95L2.67 15.95Q2.67 17.08 3.10 17.72L3.10 17.72L3.10 17.72Q3.53 18.37 4.28 18.37L4.28 18.37L4.28 18.37Q5.19 18.37 5.78 17.72L5.78 17.72L5.78 17.72Q6.36 17.08 6.43 16.09L6.43 16.09L6.43 16.09Q7.42 16.09 7.42 16.86L7.42 16.86L7.42 16.86Q7.42 17.47 7 18.01L7 18.01L7 18.01Q6.58 18.55 5.87 18.87L5.87 18.87L5.87 18.87Q5.17 19.18 4.34 19.18L4.34 19.18ZM10.64 19.18L10.64 19.18Q9.86 19.18 9.86 18.37L9.86 18.37L9.86 18.37Q9.86 17.91 10.09 16.56L10.09 16.56L10.09 16.56Q10.33 15.20 10.85 12.53L10.85 12.53L10.85 12.53Q10.99 11.82 11.16 10.95L11.16 10.95L11.16 10.95Q11.33 10.08 11.51 9.07L11.51 9.07L10.93 8.47L10.93 8.47Q11.20 8.25 11.59 8.11L11.59 8.11L11.59 8.11Q11.97 7.98 12.29 7.98L12.29 7.98L12.29 7.98Q12.63 7.98 12.77 8.14L12.77 8.14L12.77 8.14Q12.91 8.30 12.91 8.69L12.91 8.69L12.91 8.69Q12.91 8.95 12.82 9.35L12.82 9.35L12.82 9.35Q12.74 9.74 12.54 10.56L12.54 10.56L12.54 10.56Q12.17 12.10 11.98 12.98L11.98 12.98L12.12 13.05L12.12 13.05Q12.88 11.68 13.89 11.05L13.89 11.05L13.89 11.05Q14.90 10.43 15.89 10.43L15.89 10.43L15.89 10.43Q16.81 10.43 17.26 10.89L17.26 10.89L17.26 10.89Q17.71 11.35 17.71 12.33L17.71 12.33L17.71 12.33Q17.71 12.91 17.58 13.53L17.58 13.53L17.58 13.53Q17.46 14.15 17.22 15.09L17.22 15.09L17.22 15.09Q16.94 16.25 16.81 16.92L16.81 16.92L16.81 16.92Q16.69 17.58 16.69 18.27L16.69 18.27L16.69 18.27Q16.69 18.68 16.84 18.86L16.84 18.86L16.84 18.86Q16.51 19.18 16.11 19.18L16.11 19.18L16.11 19.18Q15.71 19.18 15.53 18.98L15.53 18.98L15.53 18.98Q15.34 18.77 15.34 18.37L15.34 18.37L15.34 18.37Q15.34 17.84 15.46 17.19L15.46 17.19L15.46 17.19Q15.57 16.53 15.81 15.34L15.81 15.34L15.81 15.34Q16.02 14.35 16.13 13.72L16.13 13.72L16.13 13.72Q16.24 13.09 16.24 12.64L16.24 12.64L16.24 12.64Q16.24 11.37 15.29 11.37L15.29 11.37L15.29 11.37Q14.36 11.37 13.41 12.26L13.41 12.26L13.41 12.26Q12.46 13.16 11.84 14.74L11.84 14.74L11.84 14.74Q11.21 16.32 11.21 18.27L11.21 18.27L11.21 18.27Q11.21 18.70 11.35 18.86L11.35 18.86L11.35 18.86Q11.03 19.18 10.64 19.18L10.64 19.18ZM28.06 11.30L28.06 11.30Q28.06 11.63 27.97 12.06L27.97 12.06L27.97 12.06Q27.89 12.49 27.66 13.43L27.66 13.43L27.66 13.43Q27.31 14.91 27.12 16.00L27.12 16.00L27.12 16.00Q26.92 17.09 26.92 18.27L26.92 18.27L26.92 18.27Q26.92 18.66 27.12 18.86L27.12 18.86L27.12 18.86Q26.80 19.18 26.40 19.18L26.40 19.18L26.40 19.18Q26.00 19.18 25.77 18.91L25.77 18.91L25.77 18.91Q25.55 18.65 25.55 18.13L25.55 18.13L25.55 18.13Q25.55 17.77 25.66 17.21L25.66 17.21L25.52 17.14L25.52 17.14Q25.00 18.12 24.23 18.65L24.23 18.65L24.23 18.65Q23.45 19.18 22.57 19.18L22.57 19.18L22.57 19.18Q21.81 19.18 21.24 18.77L21.24 18.77L21.24 18.77Q20.66 18.37 20.35 17.62L20.35 17.62L20.35 17.62Q20.03 16.87 20.03 15.89L20.03 15.89L20.03 15.89Q20.03 14.39 20.75 13.14L20.75 13.14L20.75 13.14Q21.46 11.89 22.69 11.16L22.69 11.16L22.69 11.16Q23.91 10.43 25.35 10.43L25.35 10.43L25.35 10.43Q26.01 10.43 26.73 10.54L26.73 10.54L26.73 10.54Q26.87 10.77 26.88 10.93L26.88 10.93L26.88 10.93Q27.12 10.78 27.37 10.78L27.37 10.78L27.37 10.78Q27.69 10.78 27.87 10.91L27.87 10.91L27.87 10.91Q28.06 11.05 28.06 11.30L28.06 11.30ZM23.10 18.13L23.10 18.13Q25.82 18.13 26.71 11.07L26.71 11.07L26.71 11.07Q25.06 11.10 23.88 11.75L23.88 11.75L23.88 11.75Q22.71 12.39 22.10 13.49L22.10 13.49L22.10 13.49Q21.49 14.59 21.49 15.97L21.49 15.97L21.49 15.97Q21.49 17.00 21.91 17.56L21.91 17.56L21.91 17.56Q22.33 18.13 23.10 18.13L23.10 18.13ZM31.71 19.18L31.71 19.18Q31.32 19.18 31.12 18.94L31.12 18.94L31.12 18.94Q30.93 18.69 30.93 18.16L30.93 18.16L30.93 18.16Q30.93 17.57 31.34 15.51L31.34 15.51L31.34 15.51Q31.75 13.45 32.23 11.70L32.23 11.70L31.64 11.10L31.64 11.10Q32.37 10.49 32.87 10.49L32.87 10.49L32.87 10.49Q33.21 10.49 33.36 10.68L33.36 10.68L33.36 10.68Q33.52 10.88 33.52 11.17L33.52 11.17L33.52 11.17Q33.52 11.62 33.36 12.15L33.36 12.15L33.36 12.15Q33.21 12.68 32.91 13.40L32.91 13.40L33.05 13.47L33.05 13.47Q33.73 11.93 34.45 11.17L34.45 11.17L34.45 11.17Q35.18 10.42 35.84 10.42L35.84 10.42L35.84 10.42Q36.26 10.42 36.46 10.58L36.46 10.58L36.46 10.58Q36.65 10.74 36.65 11.10L36.65 11.10L36.65 11.10Q36.65 11.49 36.32 11.73L36.32 11.73L36.32 11.73Q35.98 11.96 35.46 11.96L35.46 11.96L35.46 11.96Q34.71 11.96 33.96 12.89L33.96 12.89L33.96 12.89Q33.22 13.82 32.75 15.29L32.75 15.29L32.75 15.29Q32.28 16.76 32.28 18.27L32.28 18.27L32.28 18.27Q32.28 18.70 32.42 18.86L32.42 18.86L32.42 18.86Q32.10 19.18 31.71 19.18L31.71 19.18ZM38.42 19.18L38.42 19.18Q38.02 19.18 37.83 18.94L37.83 18.94L37.83 18.94Q37.63 18.69 37.63 18.16L37.63 18.16L37.63 18.16Q37.63 17.57 38.05 15.51L38.05 15.51L38.05 15.51Q38.46 13.45 38.93 11.70L38.93 11.70L38.35 11.10L38.35 11.10Q39.07 10.49 39.58 10.49L39.58 10.49L39.58 10.49Q39.91 10.49 40.07 10.68L40.07 10.68L40.07 10.68Q40.22 10.88 40.22 11.17L40.22 11.17L40.22 11.17Q40.22 11.62 40.07 12.15L40.07 12.15L40.07 12.15Q39.91 12.68 39.62 13.40L39.62 13.40L39.76 13.47L39.76 13.47Q40.43 11.93 41.16 11.17L41.16 11.17L41.16 11.17Q41.89 10.42 42.55 10.42L42.55 10.42L42.55 10.42Q42.97 10.42 43.16 10.58L43.16 10.58L43.16 10.58Q43.36 10.74 43.36 11.10L43.36 11.10L43.36 11.10Q43.36 11.49 43.02 11.73L43.02 11.73L43.02 11.73Q42.69 11.96 42.17 11.96L42.17 11.96L42.17 11.96Q41.41 11.96 40.67 12.89L40.67 12.89L40.67 12.89Q39.93 13.82 39.46 15.29L39.46 15.29L39.46 15.29Q38.99 16.76 38.99 18.27L38.99 18.27L38.99 18.27Q38.99 18.70 39.13 18.86L39.13 18.86L39.13 18.86Q38.81 19.18 38.42 19.18L38.42 19.18ZM51.66 11.30L51.66 11.30Q51.66 11.63 51.58 12.06L51.58 12.06L51.58 12.06Q51.49 12.49 51.27 13.43L51.27 13.43L51.27 13.43Q50.92 14.91 50.72 16.00L50.72 16.00L50.72 16.00Q50.53 17.09 50.53 18.27L50.53 18.27L50.53 18.27Q50.53 18.66 50.72 18.86L50.72 18.86L50.72 18.86Q50.40 19.18 50.01 19.18L50.01 19.18L50.01 19.18Q49.60 19.18 49.38 18.91L49.38 18.91L49.38 18.91Q49.15 18.65 49.15 18.13L49.15 18.13L49.15 18.13Q49.15 17.77 49.27 17.21L49.27 17.21L49.13 17.14L49.13 17.14Q48.61 18.12 47.83 18.65L47.83 18.65L47.83 18.65Q47.05 19.18 46.17 19.18L46.17 19.18L46.17 19.18Q45.42 19.18 44.84 18.77L44.84 18.77L44.84 18.77Q44.27 18.37 43.95 17.62L43.95 17.62L43.95 17.62Q43.64 16.87 43.64 15.89L43.64 15.89L43.64 15.89Q43.64 14.39 44.35 13.14L44.35 13.14L44.35 13.14Q45.07 11.89 46.29 11.16L46.29 11.16L46.29 11.16Q47.52 10.43 48.96 10.43L48.96 10.43L48.96 10.43Q49.62 10.43 50.33 10.54L50.33 10.54L50.33 10.54Q50.47 10.77 50.48 10.93L50.48 10.93L50.48 10.93Q50.72 10.78 50.97 10.78L50.97 10.78L50.97 10.78Q51.30 10.78 51.48 10.91L51.48 10.91L51.48 10.91Q51.66 11.05 51.66 11.30L51.66 11.30ZM46.70 18.13L46.70 18.13Q49.42 18.13 50.32 11.07L50.32 11.07L50.32 11.07Q48.66 11.10 47.49 11.75L47.49 11.75L47.49 11.75Q46.31 12.39 45.70 13.49L45.70 13.49L45.70 13.49Q45.09 14.59 45.09 15.97L45.09 15.97L45.09 15.97Q45.09 17.00 45.51 17.56L45.51 17.56L45.51 17.56Q45.93 18.13 46.70 18.13L46.70 18.13ZM60.98 18.17L60.98 18.17Q60.98 18.34 61.05 18.56L61.05 18.56L61.05 18.56Q61.12 18.77 61.24 18.86L61.24 18.86L61.24 18.86Q60.86 19.18 60.35 19.18L60.35 19.18L60.35 19.18Q60.03 19.18 59.84 18.96L59.84 18.96L59.84 18.96Q59.65 18.73 59.65 18.30L59.65 18.30L59.65 18.30Q59.65 18.09 59.75 17.21L59.75 17.21L59.58 17.14L59.58 17.14Q59.07 18.12 58.29 18.65L58.29 18.65L58.29 18.65Q57.51 19.18 56.63 19.18L56.63 19.18L56.63 19.18Q55.87 19.18 55.30 18.77L55.30 18.77L55.30 18.77Q54.73 18.37 54.41 17.62L54.41 17.62L54.41 17.62Q54.10 16.87 54.10 15.89L54.10 15.89L54.10 15.89Q54.10 14.50 54.81 13.33L54.81 13.33L54.81 13.33Q55.52 12.15 56.75 11.47L56.75 11.47L56.75 11.47Q57.97 10.78 59.42 10.78L59.42 10.78L59.42 10.78Q60.10 10.78 60.72 10.88L60.72 10.88L61.04 9.07L60.47 8.47L60.47 8.47Q60.73 8.25 61.12 8.11L61.12 8.11L61.12 8.11Q61.50 7.98 61.82 7.98L61.82 7.98L61.82 7.98Q62.16 7.98 62.30 8.14L62.30 8.14L62.30 8.14Q62.44 8.30 62.44 8.69L62.44 8.69L62.44 8.69Q62.44 8.95 62.32 9.51L62.32 9.51L62.32 9.51Q62.20 10.08 62.05 10.75L62.05 10.75L62.05 10.75Q61.56 12.95 61.27 14.66L61.27 14.66L61.27 14.66Q60.98 16.37 60.98 18.17L60.98 18.17ZM60.00 15.40L60.00 15.40Q60.33 13.17 60.63 11.42L60.63 11.42L60.63 11.42Q59.07 11.48 57.92 12.07L57.92 12.07L57.92 12.07Q56.77 12.66 56.16 13.66L56.16 13.66L56.16 13.66Q55.55 14.67 55.55 15.97L55.55 15.97L55.55 15.97Q55.55 17.00 55.97 17.56L55.97 17.56L55.97 17.56Q56.39 18.13 57.16 18.13L57.16 18.13L57.16 18.13Q57.99 18.13 58.78 17.38L58.78 17.38L58.78 17.38Q59.57 16.63 60.00 15.37L60.00 15.37L60.00 15.40ZM67.06 9.13L67.06 9.13Q66.67 9.13 66.44 8.94L66.44 8.94L66.44 8.94Q66.21 8.75 66.21 8.43L66.21 8.43L66.21 8.43Q66.21 8.06 66.50 7.78L66.50 7.78L66.50 7.78Q66.79 7.49 67.30 7.49L67.30 7.49L67.30 7.49Q67.70 7.49 67.93 7.69L67.93 7.69L67.93 7.69Q68.15 7.88 68.15 8.19L68.15 8.19L68.15 8.19Q68.15 8.58 67.85 8.86L67.85 8.86L67.85 8.86Q67.55 9.13 67.06 9.13L67.06 9.13ZM65.72 19.18L65.72 19.18Q65.34 19.18 65.14 18.99L65.14 18.99L65.14 18.99Q64.95 18.80 64.95 18.37L64.95 18.37L64.95 18.37Q64.95 17.78 65.22 16.26L65.22 16.26L65.22 16.26Q65.49 14.74 66.22 11.48L66.22 11.48L65.65 10.91L65.65 10.91Q65.91 10.68 66.28 10.56L66.28 10.56L66.28 10.56Q66.64 10.43 66.93 10.43L66.93 10.43L66.93 10.43Q67.31 10.43 67.47 10.58L67.47 10.58L67.47 10.58Q67.63 10.74 67.63 11.13L67.63 11.13L67.63 11.13Q67.63 11.20 67.40 12.15L67.40 12.15L67.40 12.15Q66.93 14.01 66.62 15.60L66.62 15.60L66.62 15.60Q66.30 17.19 66.30 18.27L66.30 18.27L66.30 18.27Q66.30 18.70 66.50 18.87L66.50 18.87L66.50 18.87Q66.15 19.18 65.72 19.18L65.72 19.18ZM75.43 19.18L75.43 19.18Q74.65 19.18 74.65 18.37L74.65 18.37L74.65 18.37Q74.65 17.91 74.89 16.56L74.89 16.56L74.89 16.56Q75.12 15.20 75.64 12.53L75.64 12.53L75.64 12.53Q75.78 11.82 75.95 10.95L75.95 10.95L75.95 10.95Q76.12 10.08 76.30 9.07L76.30 9.07L75.73 8.47L75.73 8.47Q75.99 8.25 76.38 8.11L76.38 8.11L76.38 8.11Q76.76 7.98 77.08 7.98L77.08 7.98L77.08 7.98Q77.42 7.98 77.56 8.14L77.56 8.14L77.56 8.14Q77.70 8.30 77.70 8.69L77.70 8.69L77.70 8.69Q77.70 8.95 77.62 9.35L77.62 9.35L77.62 9.35Q77.53 9.74 77.34 10.56L77.34 10.56L77.34 10.56Q76.96 12.10 76.78 12.98L76.78 12.98L76.92 13.05L76.92 13.05Q77.67 11.68 78.68 11.05L78.68 11.05L78.68 11.05Q79.69 10.43 80.68 10.43L80.68 10.43L80.68 10.43Q81.61 10.43 82.05 10.89L82.05 10.89L82.05 10.89Q82.50 11.35 82.50 12.33L82.50 12.33L82.50 12.33Q82.50 12.91 82.38 13.53L82.38 13.53L82.38 13.53Q82.25 14.15 82.01 15.09L82.01 15.09L82.01 15.09Q81.73 16.25 81.61 16.92L81.61 16.92L81.61 16.92Q81.48 17.58 81.48 18.27L81.48 18.27L81.48 18.27Q81.48 18.68 81.63 18.86L81.63 18.86L81.63 18.86Q81.30 19.18 80.91 19.18L80.91 19.18L80.91 19.18Q80.50 19.18 80.32 18.98L80.32 18.98L80.32 18.98Q80.14 18.77 80.14 18.37L80.14 18.37L80.14 18.37Q80.14 17.84 80.25 17.19L80.25 17.19L80.25 17.19Q80.36 16.53 80.60 15.34L80.60 15.34L80.60 15.34Q80.81 14.35 80.92 13.72L80.92 13.72L80.92 13.72Q81.03 13.09 81.03 12.64L81.03 12.64L81.03 12.64Q81.03 11.37 80.08 11.37L80.08 11.37L80.08 11.37Q79.16 11.37 78.20 12.26L78.20 12.26L78.20 12.26Q77.25 13.16 76.63 14.74L76.63 14.74L76.63 14.74Q76.01 16.32 76.01 18.27L76.01 18.27L76.01 18.27Q76.01 18.70 76.15 18.86L76.15 18.86L76.15 18.86Q75.82 19.18 75.43 19.18L75.43 19.18ZM92.85 11.30L92.85 11.30Q92.85 11.63 92.76 12.06L92.76 12.06L92.76 12.06Q92.68 12.49 92.46 13.43L92.46 13.43L92.46 13.43Q92.11 14.91 91.91 16.00L91.91 16.00L91.91 16.00Q91.71 17.09 91.71 18.27L91.71 18.27L91.71 18.27Q91.71 18.66 91.91 18.86L91.91 18.86L91.91 18.86Q91.59 19.18 91.20 19.18L91.20 19.18L91.20 19.18Q90.79 19.18 90.57 18.91L90.57 18.91L90.57 18.91Q90.34 18.65 90.34 18.13L90.34 18.13L90.34 18.13Q90.34 17.77 90.45 17.21L90.45 17.21L90.31 17.14L90.31 17.14Q89.80 18.12 89.02 18.65L89.02 18.65L89.02 18.65Q88.24 19.18 87.36 19.18L87.36 19.18L87.36 19.18Q86.60 19.18 86.03 18.77L86.03 18.77L86.03 18.77Q85.46 18.37 85.14 17.62L85.14 17.62L85.14 17.62Q84.83 16.87 84.83 15.89L84.83 15.89L84.83 15.89Q84.83 14.39 85.54 13.14L85.54 13.14L85.54 13.14Q86.25 11.89 87.48 11.16L87.48 11.16L87.48 11.16Q88.70 10.43 90.15 10.43L90.15 10.43L90.15 10.43Q90.80 10.43 91.52 10.54L91.52 10.54L91.52 10.54Q91.66 10.77 91.67 10.93L91.67 10.93L91.67 10.93Q91.91 10.78 92.16 10.78L92.16 10.78L92.16 10.78Q92.48 10.78 92.67 10.91L92.67 10.91L92.67 10.91Q92.85 11.05 92.85 11.30L92.85 11.30ZM87.89 18.13L87.89 18.13Q90.61 18.13 91.50 11.07L91.50 11.07L91.50 11.07Q89.85 11.10 88.68 11.75L88.68 11.75L88.68 11.75Q87.50 12.39 86.89 13.49L86.89 13.49L86.89 13.49Q86.28 14.59 86.28 15.97L86.28 15.97L86.28 15.97Q86.28 17.00 86.70 17.56L86.70 17.56L86.70 17.56Q87.12 18.13 87.89 18.13L87.89 18.13ZM96.52 19.18L96.52 19.18Q95.73 19.18 95.73 18.37L95.73 18.37L95.73 18.37Q95.73 17.64 96.15 15.55L96.15 15.55L96.15 15.55Q96.57 13.47 97.03 11.70L97.03 11.70L96.43 11.10L96.43 11.10Q96.71 10.82 97.12 10.65L97.12 10.65L97.12 10.65Q97.52 10.49 97.80 10.49L97.80 10.49L97.80 10.49Q98.18 10.49 98.31 10.63L98.31 10.63L98.31 10.63Q98.45 10.77 98.45 11.17L98.45 11.17L98.45 11.17Q98.45 11.55 98.32 12.03L98.32 12.03L98.32 12.03Q98.20 12.50 97.99 12.92L97.99 12.92L98.13 12.99L98.13 12.99Q98.83 11.63 99.66 11.03L99.66 11.03L99.66 11.03Q100.49 10.43 101.51 10.43L101.51 10.43L101.51 10.43Q102.42 10.43 102.81 10.91L102.81 10.91L102.81 10.91Q103.19 11.40 103.19 12.25L103.19 12.25L103.19 12.25Q103.19 12.54 103.11 12.92L103.11 12.92L103.25 12.99L103.25 12.99Q103.98 11.63 104.84 11.03L104.84 11.03L104.84 11.03Q105.70 10.43 106.75 10.43L106.75 10.43L106.75 10.43Q107.67 10.43 108.12 10.89L108.12 10.89L108.12 10.89Q108.57 11.35 108.57 12.33L108.57 12.33L108.57 12.33Q108.57 12.89 108.45 13.50L108.45 13.50L108.45 13.50Q108.33 14.10 108.09 15.09L108.09 15.09L108.09 15.09Q107.83 16.13 107.70 16.85L107.70 16.85L107.70 16.85Q107.56 17.57 107.56 18.27L107.56 18.27L107.56 18.27Q107.56 18.70 107.70 18.86L107.70 18.86L107.70 18.86Q107.38 19.18 106.99 19.18L106.99 19.18L106.99 19.18Q106.20 19.18 106.20 18.30L106.20 18.30L106.20 18.30Q106.20 17.81 106.32 17.16L106.32 17.16L106.32 17.16Q106.43 16.52 106.67 15.37L106.67 15.37L106.67 15.37Q106.90 14.28 107.01 13.68L107.01 13.68L107.01 13.68Q107.11 13.08 107.11 12.63L107.11 12.63L107.11 12.63Q107.11 11.37 106.15 11.37L106.15 11.37L106.15 11.37Q105.29 11.37 104.40 12.26L104.40 12.26L104.40 12.26Q103.50 13.16 102.91 14.74L102.91 14.74L102.91 14.74Q102.33 16.32 102.33 18.27L102.33 18.27L102.33 18.27Q102.33 18.70 102.47 18.86L102.47 18.86L102.47 18.86Q102.14 19.18 101.75 19.18L101.75 19.18L101.75 19.18Q100.97 19.18 100.97 18.30L100.97 18.30L100.97 18.30Q100.97 17.81 101.08 17.16L101.08 17.16L101.08 17.16Q101.19 16.52 101.43 15.37L101.43 15.37L101.43 15.37Q101.67 14.28 101.77 13.68L101.77 13.68L101.77 13.68Q101.88 13.08 101.88 12.63L101.88 12.63L101.88 12.63Q101.88 11.37 100.91 11.37L100.91 11.37L100.91 11.37Q100.06 11.37 99.16 12.26L99.16 12.26L99.16 12.26Q98.27 13.16 97.68 14.74L97.68 14.74L97.68 14.74Q97.09 16.32 97.09 18.27L97.09 18.27L97.09 18.27Q97.09 18.70 97.23 18.86L97.23 18.86L97.23 18.86Q96.91 19.18 96.52 19.18L96.52 19.18ZM117.77 18.17L117.77 18.17Q117.77 18.34 117.84 18.56L117.84 18.56L117.84 18.56Q117.91 18.77 118.02 18.86L118.02 18.86L118.02 18.86Q117.64 19.18 117.14 19.18L117.14 19.18L117.14 19.18Q116.82 19.18 116.63 18.96L116.63 18.96L116.63 18.96Q116.44 18.73 116.44 18.30L116.44 18.30L116.44 18.30Q116.44 18.09 116.54 17.21L116.54 17.21L116.37 17.14L116.37 17.14Q115.85 18.12 115.07 18.65L115.07 18.65L115.07 18.65Q114.30 19.18 113.41 19.18L113.41 19.18L113.41 19.18Q112.66 19.18 112.08 18.77L112.08 18.77L112.08 18.77Q111.51 18.37 111.20 17.62L111.20 17.62L111.20 17.62Q110.88 16.87 110.88 15.89L110.88 15.89L110.88 15.89Q110.88 14.50 111.59 13.33L111.59 13.33L111.59 13.33Q112.31 12.15 113.53 11.47L113.53 11.47L113.53 11.47Q114.76 10.78 116.20 10.78L116.20 10.78L116.20 10.78Q116.89 10.78 117.50 10.88L117.50 10.88L117.82 9.07L117.25 8.47L117.25 8.47Q117.52 8.25 117.90 8.11L117.90 8.11L117.90 8.11Q118.29 7.98 118.61 7.98L118.61 7.98L118.61 7.98Q118.94 7.98 119.08 8.14L119.08 8.14L119.08 8.14Q119.22 8.30 119.22 8.69L119.22 8.69L119.22 8.69Q119.22 8.95 119.11 9.51L119.11 9.51L119.11 9.51Q118.99 10.08 118.83 10.75L118.83 10.75L118.83 10.75Q118.34 12.95 118.06 14.66L118.06 14.66L118.06 14.66Q117.77 16.37 117.77 18.17L117.77 18.17ZM116.79 15.40L116.79 15.40Q117.11 13.17 117.42 11.42L117.42 11.42L117.42 11.42Q115.85 11.48 114.70 12.07L114.70 12.07L114.70 12.07Q113.55 12.66 112.95 13.66L112.95 13.66L112.95 13.66Q112.34 14.67 112.34 15.97L112.34 15.97L112.34 15.97Q112.34 17.00 112.76 17.56L112.76 17.56L112.76 17.56Q113.18 18.13 113.95 18.13L113.95 18.13L113.95 18.13Q114.77 18.13 115.56 17.38L115.56 17.38L115.56 17.38Q116.35 16.63 116.79 15.37L116.79 15.37L116.79 15.40ZM123.84 9.13L123.84 9.13Q123.45 9.13 123.22 8.94L123.22 8.94L123.22 8.94Q122.99 8.75 122.99 8.43L122.99 8.43L122.99 8.43Q122.99 8.06 123.28 7.78L123.28 7.78L123.28 7.78Q123.58 7.49 124.08 7.49L124.08 7.49L124.08 7.49Q124.49 7.49 124.71 7.69L124.71 7.69L124.71 7.69Q124.94 7.88 124.94 8.19L124.94 8.19L124.94 8.19Q124.94 8.58 124.64 8.86L124.64 8.86L124.64 8.86Q124.33 9.13 123.84 9.13L123.84 9.13ZM122.50 19.18L122.50 19.18Q122.12 19.18 121.93 18.99L121.93 18.99L121.93 18.99Q121.73 18.80 121.73 18.37L121.73 18.37L121.73 18.37Q121.73 17.78 122.00 16.26L122.00 16.26L122.00 16.26Q122.28 14.74 123.00 11.48L123.00 11.48L122.43 10.91L122.43 10.91Q122.70 10.68 123.06 10.56L123.06 10.56L123.06 10.56Q123.42 10.43 123.72 10.43L123.72 10.43L123.72 10.43Q124.10 10.43 124.26 10.58L124.26 10.58L124.26 10.58Q124.42 10.74 124.42 11.13L124.42 11.13L124.42 11.13Q124.42 11.20 124.18 12.15L124.18 12.15L124.18 12.15Q123.72 14.01 123.40 15.60L123.40 15.60L123.40 15.60Q123.09 17.19 123.09 18.27L123.09 18.27L123.09 18.27Q123.09 18.70 123.28 18.87L123.28 18.87L123.28 18.87Q122.93 19.18 122.50 19.18L122.50 19.18Z"></path></g><!----><!----></svg>